HIERARCHY
ROOT Hips
{
	OFFSET	0.00	0.00	0.00
	CHANNELS 6 Xposition Yposition Zposition Zrotation Xrotation Yrotation
	JOINT Spine
	{
		OFFSET	 0.00	0.01	 0.00
		CHANNELS 3 Zrotation Xrotation Yrotation
		JOINT Spine1
		{
			OFFSET	 0.00	 2.45913012437421	 0.00
			CHANNELS 3 Zrotation Xrotation Yrotation
            JOINT Neck
            {
                OFFSET	 0.00	 2.48462964506057	 0.00
                CHANNELS 3 Zrotation Xrotation Yrotation
                JOINT Head
                {
                    OFFSET	 0.00	 0.927524780924562	 0.00
                    CHANNELS 3 Zrotation Xrotation Yrotation
                    End Site 
                    {
                        OFFSET	 0.00	 1.14999962169752	 0.00
                    }
                }
            }
			JOINT LeftShoulder
			{
				OFFSET	 0.00	 2.48462964506057	 0.00
				CHANNELS 3 Zrotation Xrotation Yrotation
				JOINT LeftUpArm
				{
					OFFSET	 0.00	 1.24881979654096	 0.00
					CHANNELS 3 Zrotation Xrotation Yrotation
					JOINT LeftForeArm
					{
						OFFSET	 0.00	2.59758046908119	 0.00
						CHANNELS 3 Zrotation Xrotation Yrotation
						JOINT LeftHand
						{
							OFFSET	 0.00	2.45542024364365	 0.00
							CHANNELS 3 Zrotation Xrotation Yrotation
							JOINT LeftHandThumb 
							{
								OFFSET	 0.00	0.00	 0.00
								CHANNELS 3 Zrotation Xrotation Yrotation
								End Site
								{
									OFFSET	 0.00	0.00	1.00000003353624
								}
							}
							JOINT L_Wrist_End 
							{
								OFFSET	 0.00	0.99999967115358	 0.00
								CHANNELS 3 Zrotation Xrotation Yrotation
								End Site 
								{
									OFFSET	 0.00	 0.00	 0.00
								}
							}
						}
					}
				}
			}
			JOINT RightShoulder
			{
				OFFSET	 0.00	 2.48462964506057	 0.00
				CHANNELS 3 Zrotation Xrotation Yrotation
				JOINT RightUpArm
				{
					OFFSET	 0.00	 1.24881979654096	 0.00
					CHANNELS 3 Zrotation Xrotation Yrotation
					JOINT RightForeArm
					{
						OFFSET	 0.00	2.59758046908119	 0.00
						CHANNELS 3 Zrotation Xrotation Yrotation
						JOINT RightHand
						{
							OFFSET	 0.00	2.45542024364365	 0.00
							CHANNELS 3 Zrotation Xrotation Yrotation
							JOINT RightHandThumb 
							{
								OFFSET	 0.00	0.00	 0.00
								CHANNELS 3 Zrotation Xrotation Yrotation
								End Site
								{
									OFFSET	 0.00	0.00	1.00000003353624
								}
							}
							JOINT R_Wrist_End 
							{
								OFFSET	 0.00	0.99999967115358	 0.00
								CHANNELS 3 Zrotation Xrotation Yrotation
								End Site 
								{
									OFFSET	 0.00	 0.00	 0.00
								}
							}
						}
					}
				}
			}
		}
	}
	JOINT LeftUpLeg
	{
		OFFSET	 1.2719394002717	 0.00	 0.00
		CHANNELS 3 Zrotation Xrotation Yrotation
		JOINT LeftLowLeg
		{
			OFFSET	 0.00	-4.3429100912261	 0.00
			CHANNELS 3 Zrotation Xrotation Yrotation
			JOINT LeftFoot
			{
				OFFSET	 0.00	-4.48767017425826	 0.00
				CHANNELS 3 Zrotation Xrotation Yrotation
				JOINT LeftToeBase
                {
                    OFFSET	 0.00	0.00	 1.51507020887566
                    CHANNELS 3 Zrotation Xrotation Yrotation
                    End Site 
                    {
                        OFFSET	 0.00	0.00	 0.75000010571191
                    }
                }
			}
		}
	}
	JOINT RightUpLeg
	{
		OFFSET	 -1.2719393604653	 0.00	 0.00
		CHANNELS 3 Zrotation Xrotation Yrotation
		JOINT RightLowLeg
		{
			OFFSET	 0.00	-4.3429100912261	 0.00
			CHANNELS 3 Zrotation Xrotation Yrotation
			JOINT RightFoot
			{
				OFFSET	 0.00	-4.48767017425826	 0.00
				CHANNELS 3 Zrotation Xrotation Yrotation
				JOINT RightToeBase
                {
                    OFFSET	 0.00	0.00	 1.51507020887566
                    CHANNELS 3 Zrotation Xrotation Yrotation
                    End Site 
                    {
                        OFFSET	 0.00	0.00	 0.749999965609858
                    }
                }   
			}
		}
	}
}
MOTION 
Frames:	16 
Frame Time: 0.02 
  -1.6965699768066407 3.20489013671875 9.410780029296875 -146.048 77.5575 -196.937 7.73882 -18.4899 1.93464 -1.15074 7.70148 -3.18177 35.7554 19.3867 -28.6304 -82.8945 -67.5618 -76.4866 -111.5206 -3.12187 9.05678 -53.1504 -6.84109 -379.517 0.0 110.897 0.0 -29.424 -34.6791 20.2948 0.0 0.0 0.0 0.0 0.0 0.0 111.3907 -10.5952 2.5672 31.6141 20.4481 -296.798 0.0 107.357 0.0 2.05227 -21.8087 87.8649 0.0 0.0 0.0 0.0 0.0 0.0 0.356304 -8.6865 -26.4269 0.0 8.27775 0.0 1.05337 -3.1364002 19.0913 0.0 -11.00325 0.0 8.52278 -7.88284 388.158 0.0 4.35607 0.0 4.31679 4.6136 -24.8518 0.0 -17.94924 0.0 
  -1.6953199768066407 3.201000061035156 9.41073974609375 -146.718 77.4465 -196.844 7.94558 -18.4682 1.88476 -1.11322 7.63842 -3.40551 35.8502 19.2156 -28.7277 -82.4217 -67.6472 -75.9826 -111.4651 -3.1432 9.0002 -53.2528 -7.11438 -379.838 0.0 110.871 0.0 -30.1938 -34.6069 18.9609 0.0 0.0 0.0 0.0 0.0 0.0 111.3913 -10.6873 2.73506 31.2777 20.3802 -294.764 0.0 106.933 0.0 1.1572 -20.3624 89.4925 0.0 0.0 0.0 0.0 0.0 0.0 0.335597 -8.71149 -25.9895 0.0 8.2624 0.0 1.07265 -3.1823997 19.2039 0.0 -11.00883 0.0 8.48205 -7.97517 388.445 0.0 4.28395 0.0 4.26958 4.7075996 -24.6337 0.0 -17.9077 0.0 
  -1.6940800476074218 3.1965701293945314 9.410549926757813 -147.343 77.3586 -196.779 8.07144 -18.4747 1.77854 -0.975133 7.6165 -3.61612 35.8886 19.3649 -28.5766 -81.4942 -67.7099 -74.9791 -111.4549 -3.19267 9.01999 -53.4156 -7.21104 -380.181 0.0 110.874 0.0 -30.4218 -34.7371 18.8999 0.0 0.0 0.0 0.0 0.0 0.0 111.3714 -10.7439 2.9632 31.0124 19.8731 -293.755 0.0 106.344 0.0 -0.130962 -18.8542 89.9527 0.0 0.0 0.0 0.0 0.0 0.0 0.321966 -8.69094 -25.6196 0.0 8.20698 0.0 1.05631 -3.2217999 19.3427 0.0 -11.04228 0.0 8.44853 -8.0577 388.727 0.0 4.2536 0.0 4.24272 4.7560997 -24.413 0.0 -17.85152 0.0 
  -1.6927900695800782 3.192659912109375 9.410330200195313 -147.849 77.3183 -196.832 8.18762 -18.4784 1.68862 -0.850541 7.66269 -3.79971 36.031 19.7159 -28.3301 -80.172 -67.7791 -73.4355 -111.4158 -3.2178 8.98236 -53.6607 -7.24318 -380.453 0.0 110.869 0.0 -30.6266 -34.6243 17.8938 0.0 0.0 0.0 0.0 0.0 0.0 111.352 -10.8567 3.20708 30.8631 19.0725 -293.638 0.0 105.713 0.0 -1.31656 -17.7962 90.0541 0.0 0.0 0.0 0.0 0.0 0.0 0.318098 -8.61505 -25.2588 0.0 8.13964 0.0 1.05177 -3.2637005 19.5027 0.0 -11.08768 0.0 8.42025 -8.09777 388.948 0.0 4.23096 0.0 4.23892 4.8079996 -24.1202 0.0 -17.82864 0.0 
  -1.6921400451660156 3.188030090332031 9.4097802734375 -148.268 77.2849 -196.931 8.25573 -18.539 1.54685 -0.640124 7.73639 -3.98814 36.0439 20.4054 -27.8342 -78.4166 -67.759 -71.3681 -111.4495 -3.2558 8.93231 -53.8449 -7.21128 -380.675 0.0 110.833 0.0 -30.7031 -34.4805 17.3693 0.0 0.0 0.0 0.0 0.0 0.0 111.3816 -10.9236 3.31814 30.7301 18.3099 -293.874 0.0 105.267 0.0 -1.37274 -18.0632 90.0414 0.0 0.0 0.0 0.0 0.0 0.0 0.324608 -8.54103 -24.9258 0.0 8.09973 0.0 1.0349 -3.3437996 19.6428 0.0 -11.06584 0.0 8.40199 -8.11505 389.1 0.0 4.19423 0.0 4.22906 4.8566 -23.7973 0.0 -17.7831 0.0 
  -1.6910099792480469 3.184670104980469 9.408900146484376 -148.663 77.2382 -197.048 8.31249 -18.6468 1.41106 -0.400891 7.85655 -4.14886 36.0122 21.2501 -27.2217 -76.2133 -67.6838 -68.7412 -111.5267 -3.29107 8.97851 -53.9057 -7.18936 -380.541 0.0 110.874 0.0 -29.1622 -34.1036 18.5309 0.0 0.0 0.0 0.0 0.0 0.0 111.4081 -10.8943 3.40167 30.6703 17.3165 -294.478 0.0 105.032 0.0 -0.536884 -19.2412 90.382 0.0 0.0 0.0 0.0 0.0 0.0 0.326249 -8.49511 -24.6226 0.0 8.0788 0.0 1.05276 -3.4160004 19.8222 0.0 -11.09686 0.0 8.3911 -8.16265 389.321 0.0 4.18371 0.0 4.26843 4.8799 -23.5064 0.0 -17.77063 0.0 
  -1.6897000122070311 3.1823300170898436 9.40833984375 -148.973 77.2375 -197.212 8.375 -18.7339 1.30335 -0.179788 8.02955 -4.28599 36.0098 22.1613 -26.6005 -73.8081 -67.5641 -65.5951 -111.5551 -3.37616 8.9162 -54.0926 -6.82684 -380.507 0.0 110.785 0.0 -29.0239 -34.1446 18.1171 0.0 0.0 0.0 0.0 0.0 0.0 111.427795 -10.8982 3.34733 30.7642 16.3982 -295.277 0.0 104.749 0.0 0.587927 -20.0425 90.8227 0.0 0.0 0.0 0.0 0.0 0.0 0.312935 -8.43957 -24.2973 0.0 8.1163 0.0 1.0722 -3.4946995 19.9489 0.0 -11.1130905 0.0 8.3891 -8.18494 389.567 0.0 4.21467 0.0 4.3064 4.8876 -23.2846 0.0 -17.74079 0.0 
  -1.68875 3.1805300903320313 9.40718017578125 -149.259 77.2645 -197.368 8.43847 -18.8237 1.22698 0.0340334 8.21323 -4.38734 35.7723 23.2895 -25.7131 -71.2509 -67.3375 -62.3335 -111.5176 -3.35785 8.92542 -54.2983 -6.47955 -380.36 0.0 110.703 0.0 -28.6383 -34.1303 18.1166 0.0 0.0 0.0 0.0 0.0 0.0 111.5275 -10.832 3.2139 30.9199 15.4694 -296.149 0.0 104.536 0.0 1.37319 -20.1613 91.1546 0.0 0.0 0.0 0.0 0.0 0.0 0.292036 -8.36658 -24.0155 0.0 8.15476 0.0 1.07145 -3.5802002 20.0704 0.0 -11.14035 0.0 8.39054 -8.19025 389.85 0.0 4.26267 0.0 4.32819 4.8760996 -23.1417 0.0 -17.73538 0.0 
  -1.6883999633789062 3.180780029296875 9.406290283203125 -149.549 77.3318 -197.526 8.47017 -18.8567 1.15371 0.270437 8.42281 -4.46687 35.3207 24.5665 -24.4547 -69.1951 -67.2279 -59.3634 -111.5325 -3.33006 8.81587 -54.4147 -6.20597 -380.104 0.0 110.679 0.0 -28.2567 -34.1343 17.8508 0.0 0.0 0.0 0.0 0.0 0.0 111.6201 -10.8203 3.01366 31.216 14.7816 -297.006 0.0 104.333 0.0 1.5962 -20.0639 91.7641 0.0 0.0 0.0 0.0 0.0 0.0 0.251997 -8.28289 -23.74 0.0 8.22725 0.0 1.02861 -3.6770992 20.1852 0.0 -11.14328 0.0 8.39347 -8.19174 390.194 0.0 4.35915 0.0 4.37285 4.8437004 -23.0446 0.0 -17.72437 0.0 
  -1.6879899597167969 3.1823199462890623 9.40573974609375 -149.729 77.4483 -197.716 8.5451 -18.826 1.102 0.474914 8.7005 -4.57157 34.5414 25.7136 -22.8956 -68.6413 -67.3911 -57.7872 -111.517 -3.33828 8.78418 -54.4691 -5.85108 -379.66 0.0 110.716 0.0 -27.4587 -34.2418 18.0317 0.0 0.0 0.0 0.0 0.0 0.0 111.7525 -10.8741 2.89739 31.6683 14.3268 -297.927 0.0 104.199 0.0 1.60893 -19.5109 91.9848 0.0 0.0 0.0 0.0 0.0 0.0 0.202893 -8.17302 -23.5318 0.0 8.31601 0.0 1.05628 -3.723301 20.327 0.0 -11.17758 0.0 8.38951 -8.14563 390.419 0.0 4.44804 0.0 4.38394 4.8331003 -22.9248 0.0 -17.6947 0.0 
  -1.6870899963378907 3.1860400390625 9.405999755859375 -149.701 77.6535 -198.08 8.67531 -18.6345 1.10653 0.74895 9.04098 -4.67303 33.0254 26.6599 -20.6971 -70.2734 -67.9517 -58.4559 -111.553696 -3.32136 8.6012 -54.4425 -5.67049 -379.169 0.0 110.749 0.0 -27.1147 -34.0094 17.7457 0.0 0.0 0.0 0.0 0.0 0.0 111.8936 -11.2166 2.52591 32.1251 14.5156 -298.5 0.0 104.419 0.0 1.58871 -19.9266 91.742 0.0 0.0 0.0 0.0 0.0 0.0 0.154484 -7.98543 -23.3291 0.0 8.40845 0.0 1.0734 -3.7558002 20.4586 0.0 -11.1749 0.0 8.38606 -8.00809 390.645 0.0 4.52083 0.0 4.41959 4.8546 -22.8528 0.0 -17.71263 0.0 
  -1.68781005859375 3.186659851074219 9.407420043945313 -148.963 78.1551 -199.034 8.70372 -18.234 0.955198 1.28311 9.71393 -4.89309 30.5492 27.1499 -17.7207 -73.695 -68.8826 -60.8624 -111.6077 -3.3909 8.51266 -54.5422 -5.38676 -378.868 0.0 110.846 0.0 -27.024 -33.7978 16.8419 0.0 0.0 0.0 0.0 0.0 0.0 111.9167 -11.1713 2.48758 32.7033 14.2466 -299.046 0.0 104.916 0.0 1.22498 -20.1703 92.0542 0.0 0.0 0.0 0.0 0.0 0.0 0.156841 -7.45624 -23.2444 0.0 8.46909 0.0 1.05069 -3.7695007 20.5809 0.0 -11.19051 0.0 8.40967 -7.49639 390.746 0.0 4.52504 0.0 4.34196 4.9735003 -22.8733 0.0 -17.71758 0.0 
  -1.6883900451660157 3.1943099975585936 9.408790283203125 -148.843 78.3864 -199.338 8.9598 -17.7078 1.07576 1.38772 9.81969 -5.02834 27.6063 27.5635 -14.2275 -77.8001 -69.8304 -64.0094 -111.4423 -3.32366 8.67433 -54.7345 -5.30866 -378.639 0.0 110.99 0.0 -26.8704 -33.5366 16.636 0.0 0.0 0.0 0.0 0.0 0.0 112.1408 -11.2231 2.23072 33.1817 13.8913 -299.351 0.0 105.278 0.0 0.687506 -19.7314 92.034 0.0 0.0 0.0 0.0 0.0 0.0 0.0931827 -7.30852 -23.1343 0.0 8.59259 0.0 1.03992 -3.7462997 20.6404 0.0 -11.20912 0.0 8.39278 -7.34303 390.965 0.0 4.57521 0.0 4.36799 5.01931 -22.9513 0.0 -17.71779 0.0 
  -1.6901300048828125 3.2027099609375 9.410330200195313 -149.066 78.4935 -199.229 9.10336 -17.3146 1.11589 1.50839 9.88701 -5.14465 24.425 27.4774 -10.7244 -80.7781 -70.6983 -65.8523 -111.1147 -3.11746 8.84073 -55.2597 -5.45308 -378.64 0.0 111.144 0.0 -27.2178 -33.3321 15.6544 0.0 0.0 0.0 0.0 0.0 0.0 112.2707 -11.0349 1.74186 33.6844 13.4474 -299.299 0.0 105.455 0.0 0.325669 -18.936 92.1842 0.0 0.0 0.0 0.0 0.0 0.0 0.0189201 -7.30019 -22.9926 0.0 8.66971 0.0 0.990641 -3.6802998 20.5813 0.0 -11.256041 0.0 8.35869 -7.33976 391.164 0.0 4.64152 0.0 4.37626 5.0442896 -23.0776 0.0 -17.71977 0.0 
  -1.6928900146484376 3.2112200927734373 9.411669921875 -149.486 78.4686 -198.804 9.20217 -17.0409 1.13247 1.55644 9.84616 -5.2395 21.1526 26.9306 -7.36295 -81.7793 -71.4697 -65.7124 -110.5414 -2.78191 9.03533 -56.1226 -5.76791 -378.78 0.0 111.249 0.0 -27.7917 -33.0756 15.0512 0.0 0.0 0.0 0.0 0.0 0.0 112.3422 -10.651 1.56324 34.3202 12.6067 -299.216 0.0 105.488 0.0 0.564634 -18.2212 92.3714 0.0 0.0 0.0 0.0 0.0 0.0 -0.0424994 -7.42484 -22.8475 0.0 8.68664 0.0 0.946949 -3.5888004 20.4216 0.0 -11.27149 0.0 8.30949 -7.45077 391.223 0.0 4.65629 0.0 4.36759 5.06536 -23.173 0.0 -17.70894 0.0 
  -1.6971600341796875 3.2188900756835936 9.413170166015625 -150.107 78.2655 -198.037 9.22551 -16.9559 1.12989 1.61808 9.77864 -5.26287 17.6643 26.3713 -3.76675 -82.0837 -72.1429 -65.2188 -109.78 -2.32378 9.1789 -57.1637 -6.16587 -378.843 0.0 111.251 0.0 -28.8038 -32.761 14.003 0.0 0.0 0.0 0.0 0.0 0.0 112.5207 -10.4975 1.43695 34.7492 11.9312 -299.238 0.0 105.395 0.0 0.693807 -18.4386 92.6827 0.0 0.0 0.0 0.0 0.0 0.0 -0.0839321 -7.71969 -22.822 0.0 8.6432 0.0 0.915699 -3.4599 20.2501 0.0 -11.26907 0.0 8.25229 -7.71053 391.063 0.0 4.60172 0.0 4.28742 5.13605 -23.2016 0.0 -17.71908 0.0 
